<svg width="27" height="24" viewBox="0 0 27 24" fill="none" xmlns="http://www.w3.org/2000/svg">
<path fill-rule="evenodd" clip-rule="evenodd" d="M10.8187 1.49792C11.9739 -0.499307 14.8572 -0.499308 16.0125 1.49792L26.4235 19.4972C27.5804 21.4972 26.1371 23.9993 23.8267 23.9993H3.00448C0.694012 23.9993 -0.749225 21.4972 0.407608 19.4972L10.8187 1.49792ZM16.315 18.5256C16.315 20.124 15.0168 21.4197 13.4155 21.4197C11.8141 21.4197 10.516 20.124 10.516 18.5256C10.516 16.9272 11.8141 15.6314 13.4155 15.6314C15.0168 15.6314 16.315 16.9272 16.315 18.5256ZM15.7038 6.79929H11.2897L12.3283 14.6321H14.795L15.7038 6.79929Z" fill="#979797"/>
</svg>
