<svg width="375" height="52" viewBox="0 0 375 52" fill="none" xmlns="http://www.w3.org/2000/svg">
<rect y="1" width="375" height="54" fill="white"/>
<path fill-rule="evenodd" clip-rule="evenodd" d="M40.1114 8.3393C40.8862 7.59172 42.1138 7.59172 42.8887 8.33931L55.9886 20.9782C55.9927 20.9822 55.9899 20.9893 55.9841 20.9893C55.9806 20.9893 55.9777 20.9921 55.9777 20.9957V33.9561C55.9777 35.0606 55.0823 35.9561 53.9777 35.9561H47.2543C46.1497 35.9561 45.2543 35.0606 45.2543 33.9561V28.0966C45.2543 26.992 44.3589 26.0966 43.2543 26.0966H39.7458C38.6412 26.0966 37.7458 26.992 37.7458 28.0966V33.9561C37.7458 35.0606 36.8503 35.9561 35.7458 35.9561H29.0439C27.9394 35.9561 27.0439 35.0606 27.0439 33.9561V21.0019C27.0439 20.9949 27.0383 20.9893 27.0313 20.9893C27.0199 20.9893 27.0143 20.9754 27.0225 20.9675L40.1114 8.3393Z" fill="#58595A"/>
<path fill-rule="evenodd" clip-rule="evenodd" d="M332.767 7.49738C333.922 5.50087 336.805 5.50087 337.96 7.49739L350.724 29.5534C351.881 31.5534 350.438 34.0561 348.127 34.0561H322.6C320.289 34.0561 318.846 31.5534 320.003 29.5534L332.767 7.49738ZM338.7 27.7601C338.7 29.5986 337.206 31.089 335.364 31.089C333.521 31.089 332.027 29.5986 332.027 27.7601C332.027 25.9216 333.521 24.4312 335.364 24.4312C337.206 24.4312 338.7 25.9216 338.7 27.7601ZM337.997 14.2723H332.917L334.112 23.2817H336.951L337.997 14.2723Z" fill="#58595A"/>
<path d="M28.5348 41.9421H29.5548V44.9421H33.2048V41.9421H34.2248V48.9321H33.2048V45.8021H29.5548V48.9321H28.5348V41.9421ZM38.057 49.0821C37.517 49.0821 37.0403 48.9821 36.627 48.7821C36.2203 48.5755 35.9003 48.2821 35.667 47.9021C35.4403 47.5155 35.327 47.0621 35.327 46.5421C35.327 46.0288 35.4403 45.5788 35.667 45.1921C35.8936 44.8055 36.2136 44.5088 36.627 44.3021C37.0403 44.0888 37.517 43.9821 38.057 43.9821C38.597 43.9821 39.0736 44.0888 39.487 44.3021C39.9003 44.5088 40.2203 44.8055 40.447 45.1921C40.6803 45.5788 40.797 46.0288 40.797 46.5421C40.797 47.0621 40.6803 47.5155 40.447 47.9021C40.2203 48.2821 39.9003 48.5755 39.487 48.7821C39.0736 48.9821 38.597 49.0821 38.057 49.0821ZM38.057 48.2821C38.577 48.2821 38.9903 48.1221 39.297 47.8021C39.6036 47.4821 39.757 47.0621 39.757 46.5421C39.757 46.0021 39.6036 45.5755 39.297 45.2621C38.9903 44.9488 38.577 44.7921 38.057 44.7921C37.537 44.7921 37.1236 44.9488 36.817 45.2621C36.5103 45.5755 36.357 46.0021 36.357 46.5421C36.357 47.0621 36.5103 47.4821 36.817 47.8021C37.1236 48.1221 37.537 48.2821 38.057 48.2821ZM41.8941 44.1321H42.8541V44.8221C43.0808 44.5421 43.3375 44.3321 43.6241 44.1921C43.9108 44.0521 44.2075 43.9821 44.5141 43.9821C44.9008 43.9821 45.2075 44.0488 45.4341 44.1821C45.6608 44.3088 45.8275 44.5055 45.9341 44.7721C46.1475 44.5121 46.4075 44.3155 46.7141 44.1821C47.0275 44.0488 47.3408 43.9821 47.6541 43.9821C48.2408 43.9821 48.6641 44.1321 48.9241 44.4321C49.1841 44.7255 49.3141 45.1621 49.3141 45.7421V48.9321H48.3341V45.8721C48.3341 45.4788 48.2608 45.2021 48.1141 45.0421C47.9675 44.8755 47.7175 44.7921 47.3641 44.7921C46.8575 44.7921 46.4441 45.0121 46.1241 45.4521C46.1375 45.5521 46.1441 45.7155 46.1441 45.9421V48.9321H45.1641V45.8721C45.1641 45.4788 45.0975 45.2021 44.9641 45.0421C44.8308 44.8755 44.5908 44.7921 44.2441 44.7921C43.7375 44.7921 43.2841 45.0788 42.8841 45.6521V48.9321H41.8941V44.1321ZM53.206 49.0821C52.3193 49.0821 51.6227 48.8621 51.116 48.4221C50.616 47.9755 50.366 47.3488 50.366 46.5421C50.366 45.7555 50.5893 45.1321 51.036 44.6721C51.4893 44.2121 52.1327 43.9821 52.966 43.9821C53.5193 43.9821 53.9893 44.0888 54.376 44.3021C54.7627 44.5088 55.0527 44.7988 55.246 45.1721C55.446 45.5388 55.546 45.9588 55.546 46.4321V46.9321H51.326C51.3593 47.3855 51.5493 47.7255 51.896 47.9521C52.2493 48.1721 52.726 48.2821 53.326 48.2821C53.6327 48.2821 53.9427 48.2555 54.256 48.2021C54.5693 48.1421 54.846 48.0655 55.086 47.9721V48.7821C54.8727 48.8688 54.5893 48.9388 54.236 48.9921C53.8893 49.0521 53.546 49.0821 53.206 49.0821ZM54.596 46.2221C54.5827 45.7688 54.4327 45.4188 54.146 45.1721C53.866 44.9188 53.466 44.7921 52.946 44.7921C52.4393 44.7921 52.046 44.9221 51.766 45.1821C51.486 45.4421 51.3393 45.7888 51.326 46.2221H54.596Z" fill="#58595A"/>
<path d="M160.519 49.0821C160.119 49.0821 159.722 49.0455 159.329 48.9721C158.942 48.9055 158.625 48.8121 158.379 48.6921V47.7721C159.019 48.0721 159.709 48.2221 160.449 48.2221C161.489 48.2221 162.009 47.8721 162.009 47.1721C162.009 46.9321 161.952 46.7388 161.839 46.5921C161.725 46.4455 161.562 46.3188 161.349 46.2121C161.135 46.0988 160.789 45.9455 160.309 45.7521C159.649 45.4855 159.172 45.1921 158.879 44.8721C158.585 44.5521 158.439 44.1488 158.439 43.6621C158.439 43.2955 158.539 42.9721 158.739 42.6921C158.939 42.4055 159.219 42.1855 159.579 42.0321C159.939 41.8721 160.352 41.7921 160.819 41.7921C161.199 41.7921 161.542 41.8221 161.849 41.8821C162.155 41.9421 162.455 42.0388 162.749 42.1721V43.0521C162.169 42.7921 161.582 42.6621 160.989 42.6621C160.509 42.6621 160.142 42.7488 159.889 42.9221C159.635 43.0955 159.509 43.3421 159.509 43.6621C159.509 43.8821 159.562 44.0688 159.669 44.2221C159.782 44.3688 159.945 44.5021 160.159 44.6221C160.379 44.7355 160.702 44.8788 161.129 45.0521C161.602 45.2455 161.975 45.4288 162.249 45.6021C162.522 45.7755 162.729 45.9888 162.869 46.2421C163.015 46.4888 163.089 46.7988 163.089 47.1721C163.089 47.7788 162.872 48.2488 162.439 48.5821C162.005 48.9155 161.365 49.0821 160.519 49.0821ZM165.758 49.0821C165.178 49.0821 164.711 48.9355 164.358 48.6421C164.011 48.3421 163.838 47.9388 163.838 47.4321C163.838 46.8988 164.004 46.4888 164.338 46.2021C164.678 45.9088 165.158 45.7621 165.778 45.7621C166.438 45.7621 166.998 45.8955 167.458 46.1621V45.9121C167.458 45.5321 167.341 45.2521 167.108 45.0721C166.881 44.8855 166.521 44.7921 166.028 44.7921C165.734 44.7921 165.448 44.8221 165.168 44.8821C164.894 44.9355 164.648 45.0121 164.428 45.1121V44.2921C164.628 44.1988 164.888 44.1255 165.208 44.0721C165.528 44.0121 165.838 43.9821 166.138 43.9821C166.931 43.9821 167.518 44.1588 167.898 44.5121C168.284 44.8588 168.478 45.3421 168.478 45.9621V48.9321H167.528V48.3921C167.321 48.6188 167.074 48.7921 166.788 48.9121C166.508 49.0255 166.164 49.0821 165.758 49.0821ZM166.008 48.3121C166.328 48.3121 166.618 48.2488 166.878 48.1221C167.138 47.9955 167.331 47.8188 167.458 47.5921V46.9421C167.024 46.6621 166.541 46.5221 166.008 46.5221C165.621 46.5221 165.331 46.5988 165.138 46.7521C164.951 46.8988 164.858 47.1255 164.858 47.4321C164.858 48.0188 165.241 48.3121 166.008 48.3121ZM169.082 44.1321H170.152L171.562 47.5821L172.972 44.1321H174.042L172.002 48.9321H171.122L169.082 44.1321ZM177.381 49.0821C176.494 49.0821 175.797 48.8621 175.291 48.4221C174.791 47.9755 174.541 47.3488 174.541 46.5421C174.541 45.7555 174.764 45.1321 175.211 44.6721C175.664 44.2121 176.307 43.9821 177.141 43.9821C177.694 43.9821 178.164 44.0888 178.551 44.3021C178.937 44.5088 179.227 44.7988 179.421 45.1721C179.621 45.5388 179.721 45.9588 179.721 46.4321V46.9321H175.501C175.534 47.3855 175.724 47.7255 176.071 47.9521C176.424 48.1721 176.901 48.2821 177.501 48.2821C177.807 48.2821 178.117 48.2555 178.431 48.2021C178.744 48.1421 179.021 48.0655 179.261 47.9721V48.7821C179.047 48.8688 178.764 48.9388 178.411 48.9921C178.064 49.0521 177.721 49.0821 177.381 49.0821ZM178.771 46.2221C178.757 45.7688 178.607 45.4188 178.321 45.1721C178.041 44.9188 177.641 44.7921 177.121 44.7921C176.614 44.7921 176.221 44.9221 175.941 45.1821C175.661 45.4421 175.514 45.7888 175.501 46.2221H178.771ZM183.145 49.0821C182.665 49.0821 182.231 48.9788 181.845 48.7721C181.465 48.5588 181.165 48.2621 180.945 47.8821C180.731 47.4955 180.625 47.0488 180.625 46.5421C180.625 46.0421 180.731 45.5988 180.945 45.2121C181.165 44.8255 181.465 44.5255 181.845 44.3121C182.231 44.0921 182.665 43.9821 183.145 43.9821C184.011 43.9821 184.668 44.2455 185.115 44.7721V41.5421H186.125V48.9321H185.145V48.2321C184.878 48.5255 184.585 48.7421 184.265 48.8821C183.951 49.0155 183.578 49.0821 183.145 49.0821ZM183.375 48.2821C183.788 48.2821 184.148 48.1755 184.455 47.9621C184.768 47.7421 184.988 47.4488 185.115 47.0821V46.0021C185.001 45.6355 184.785 45.3421 184.465 45.1221C184.151 44.9021 183.788 44.7921 183.375 44.7921C183.048 44.7921 182.751 44.8655 182.485 45.0121C182.225 45.1588 182.018 45.3655 181.865 45.6321C181.718 45.8988 181.645 46.2021 181.645 46.5421C181.645 46.8821 181.718 47.1855 181.865 47.4521C182.018 47.7188 182.225 47.9255 182.485 48.0721C182.751 48.2121 183.048 48.2821 183.375 48.2821ZM191.128 41.9421H194.338C194.958 41.9421 195.438 42.1021 195.778 42.4221C196.118 42.7421 196.288 43.2088 196.288 43.8221C196.288 44.1688 196.204 44.4755 196.038 44.7421C195.878 45.0021 195.664 45.1955 195.398 45.3221C196.144 45.5421 196.518 46.0855 196.518 46.9521C196.518 47.3588 196.428 47.7121 196.248 48.0121C196.074 48.3055 195.834 48.5321 195.528 48.6921C195.221 48.8521 194.881 48.9321 194.508 48.9321H191.128V41.9421ZM194.208 44.9421C194.534 44.9421 194.791 44.8521 194.978 44.6721C195.164 44.4921 195.258 44.2255 195.258 43.8721C195.258 43.4655 195.164 43.1821 194.978 43.0221C194.798 42.8555 194.518 42.7721 194.138 42.7721H192.148V44.9421H194.208ZM194.278 48.1021C194.671 48.1021 194.971 48.0155 195.178 47.8421C195.384 47.6688 195.488 47.3721 195.488 46.9521C195.488 46.5321 195.378 46.2321 195.158 46.0521C194.944 45.8721 194.621 45.7821 194.188 45.7821H192.148V48.1021H194.278ZM199.532 49.0821C198.885 49.0821 198.395 48.9088 198.062 48.5621C197.735 48.2155 197.572 47.7521 197.572 47.1721V44.1321H198.582V47.1321C198.582 47.8988 198.965 48.2821 199.732 48.2821C200.405 48.2821 200.932 47.9788 201.312 47.3721V44.1321H202.322V48.9321H201.342V48.2521C201.115 48.5388 200.845 48.7488 200.532 48.8821C200.225 49.0155 199.892 49.0821 199.532 49.0821ZM205.388 49.0821C205.054 49.0821 204.701 49.0388 204.328 48.9521C203.954 48.8721 203.661 48.7621 203.448 48.6221V47.7621C203.708 47.9155 204.008 48.0421 204.348 48.1421C204.688 48.2355 205.018 48.2821 205.338 48.2821C205.698 48.2821 205.961 48.2388 206.128 48.1521C206.294 48.0655 206.378 47.9255 206.378 47.7321C206.378 47.5855 206.338 47.4688 206.258 47.3821C206.184 47.2888 206.054 47.2055 205.868 47.1321C205.688 47.0588 205.414 46.9721 205.048 46.8721C204.654 46.7588 204.341 46.6455 204.108 46.5321C203.881 46.4121 203.708 46.2621 203.588 46.0821C203.474 45.9021 203.418 45.6688 203.418 45.3821C203.418 44.9221 203.598 44.5755 203.958 44.3421C204.324 44.1021 204.814 43.9821 205.428 43.9821C205.748 43.9821 206.061 44.0121 206.368 44.0721C206.674 44.1321 206.921 44.2155 207.108 44.3221V45.1621C206.914 45.0488 206.674 44.9588 206.388 44.8921C206.108 44.8255 205.821 44.7921 205.528 44.7921C205.174 44.7921 204.904 44.8355 204.718 44.9221C204.531 45.0088 204.438 45.1621 204.438 45.3821C204.438 45.5221 204.478 45.6355 204.558 45.7221C204.638 45.8088 204.764 45.8855 204.938 45.9521C205.118 46.0121 205.401 46.0921 205.788 46.1921C206.394 46.3588 206.814 46.5555 207.048 46.7821C207.288 47.0088 207.408 47.3221 207.408 47.7221C207.408 48.1355 207.238 48.4655 206.898 48.7121C206.558 48.9588 206.054 49.0821 205.388 49.0821ZM211.15 49.0821C210.264 49.0821 209.567 48.8621 209.06 48.4221C208.56 47.9755 208.31 47.3488 208.31 46.5421C208.31 45.7555 208.534 45.1321 208.98 44.6721C209.434 44.2121 210.077 43.9821 210.91 43.9821C211.464 43.9821 211.934 44.0888 212.32 44.3021C212.707 44.5088 212.997 44.7988 213.19 45.1721C213.39 45.5388 213.49 45.9588 213.49 46.4321V46.9321H209.27C209.304 47.3855 209.494 47.7255 209.84 47.9521C210.194 48.1721 210.67 48.2821 211.27 48.2821C211.577 48.2821 211.887 48.2555 212.2 48.2021C212.514 48.1421 212.79 48.0655 213.03 47.9721V48.7821C212.817 48.8688 212.534 48.9388 212.18 48.9921C211.834 49.0521 211.49 49.0821 211.15 49.0821ZM212.54 46.2221C212.527 45.7688 212.377 45.4188 212.09 45.1721C211.81 44.9188 211.41 44.7921 210.89 44.7921C210.384 44.7921 209.99 44.9221 209.71 45.1821C209.43 45.4421 209.284 45.7888 209.27 46.2221H212.54ZM216.364 49.0821C216.031 49.0821 215.678 49.0388 215.304 48.9521C214.931 48.8721 214.638 48.7621 214.424 48.6221V47.7621C214.684 47.9155 214.984 48.0421 215.324 48.1421C215.664 48.2355 215.994 48.2821 216.314 48.2821C216.674 48.2821 216.938 48.2388 217.104 48.1521C217.271 48.0655 217.354 47.9255 217.354 47.7321C217.354 47.5855 217.314 47.4688 217.234 47.3821C217.161 47.2888 217.031 47.2055 216.844 47.1321C216.664 47.0588 216.391 46.9721 216.024 46.8721C215.631 46.7588 215.318 46.6455 215.084 46.5321C214.858 46.4121 214.684 46.2621 214.564 46.0821C214.451 45.9021 214.394 45.6688 214.394 45.3821C214.394 44.9221 214.574 44.5755 214.934 44.3421C215.301 44.1021 215.791 43.9821 216.404 43.9821C216.724 43.9821 217.038 44.0121 217.344 44.0721C217.651 44.1321 217.898 44.2155 218.084 44.3221V45.1621C217.891 45.0488 217.651 44.9588 217.364 44.8921C217.084 44.8255 216.798 44.7921 216.504 44.7921C216.151 44.7921 215.881 44.8355 215.694 44.9221C215.508 45.0088 215.414 45.1621 215.414 45.3821C215.414 45.5221 215.454 45.6355 215.534 45.7221C215.614 45.8088 215.741 45.8855 215.914 45.9521C216.094 46.0121 216.378 46.0921 216.764 46.1921C217.371 46.3588 217.791 46.5555 218.024 46.7821C218.264 47.0088 218.384 47.3221 218.384 47.7221C218.384 48.1355 218.214 48.4655 217.874 48.7121C217.534 48.9588 217.031 49.0821 216.364 49.0821Z" fill="#58595A"/>
<path d="M324.458 41.9421H325.438L328.228 48.9321H327.188L326.488 47.1921H323.398L322.718 48.9321H321.668L324.458 41.9421ZM326.208 46.3421L324.948 43.0721L323.688 46.3421H326.208ZM329.329 41.5421H330.339V48.9321H329.329V41.5421ZM334.283 49.0821C333.397 49.0821 332.7 48.8621 332.193 48.4221C331.693 47.9755 331.443 47.3488 331.443 46.5421C331.443 45.7555 331.667 45.1321 332.113 44.6721C332.567 44.2121 333.21 43.9821 334.043 43.9821C334.597 43.9821 335.067 44.0888 335.453 44.3021C335.84 44.5088 336.13 44.7988 336.323 45.1721C336.523 45.5388 336.623 45.9588 336.623 46.4321V46.9321H332.403C332.437 47.3855 332.627 47.7255 332.973 47.9521C333.327 48.1721 333.803 48.2821 334.403 48.2821C334.71 48.2821 335.02 48.2555 335.333 48.2021C335.647 48.1421 335.923 48.0655 336.163 47.9721V48.7821C335.95 48.8688 335.667 48.9388 335.313 48.9921C334.967 49.0521 334.623 49.0821 334.283 49.0821ZM335.673 46.2221C335.66 45.7688 335.51 45.4188 335.223 45.1721C334.943 44.9188 334.543 44.7921 334.023 44.7921C333.517 44.7921 333.123 44.9221 332.843 45.1821C332.563 45.4421 332.417 45.7888 332.403 46.2221H335.673ZM337.727 44.1321H338.707V44.9921C338.907 44.6988 339.187 44.4821 339.547 44.3421C339.914 44.2021 340.337 44.1321 340.817 44.1321V44.9221C340.304 44.9221 339.864 45.0055 339.497 45.1721C339.131 45.3388 338.877 45.6021 338.737 45.9621V48.9321H337.727V44.1321ZM343.572 49.0821C343.085 49.0821 342.708 48.9421 342.442 48.6621C342.182 48.3821 342.052 47.9855 342.052 47.4721V44.9121H341.322V44.1321H342.052V42.6921H343.072V44.1321H344.252V44.9121H343.072V47.4021C343.072 47.7221 343.132 47.9488 343.252 48.0821C343.378 48.2155 343.605 48.2821 343.932 48.2821C344.125 48.2821 344.318 48.2388 344.512 48.1521V48.9521C344.258 49.0388 343.945 49.0821 343.572 49.0821ZM347.036 49.0821C346.703 49.0821 346.35 49.0388 345.976 48.9521C345.603 48.8721 345.31 48.7621 345.096 48.6221V47.7621C345.356 47.9155 345.656 48.0421 345.996 48.1421C346.336 48.2355 346.666 48.2821 346.986 48.2821C347.346 48.2821 347.61 48.2388 347.776 48.1521C347.943 48.0655 348.026 47.9255 348.026 47.7321C348.026 47.5855 347.986 47.4688 347.906 47.3821C347.833 47.2888 347.703 47.2055 347.516 47.1321C347.336 47.0588 347.063 46.9721 346.696 46.8721C346.303 46.7588 345.99 46.6455 345.756 46.5321C345.53 46.4121 345.356 46.2621 345.236 46.0821C345.123 45.9021 345.066 45.6688 345.066 45.3821C345.066 44.9221 345.246 44.5755 345.606 44.3421C345.973 44.1021 346.463 43.9821 347.076 43.9821C347.396 43.9821 347.71 44.0121 348.016 44.0721C348.323 44.1321 348.57 44.2155 348.756 44.3221V45.1621C348.563 45.0488 348.323 44.9588 348.036 44.8921C347.756 44.8255 347.47 44.7921 347.176 44.7921C346.823 44.7921 346.553 44.8355 346.366 44.9221C346.18 45.0088 346.086 45.1621 346.086 45.3821C346.086 45.5221 346.126 45.6355 346.206 45.7221C346.286 45.8088 346.413 45.8855 346.586 45.9521C346.766 46.0121 347.05 46.0921 347.436 46.1921C348.043 46.3588 348.463 46.5555 348.696 46.7821C348.936 47.0088 349.056 47.3221 349.056 47.7221C349.056 48.1355 348.886 48.4655 348.546 48.7121C348.206 48.9588 347.703 49.0821 347.036 49.0821Z" fill="#58595A"/>
<path fill-rule="evenodd" clip-rule="evenodd" d="M188.224 11.1762L188.277 11.2293L188.277 11.2291L188.284 11.2362C188.385 11.1263 188.488 11.0182 188.595 10.9118C192.456 7.05616 198.693 7.03248 202.525 10.8589C206.357 14.6854 206.334 20.913 202.472 24.7686C202.366 24.875 202.257 24.9784 202.147 25.0789L202.154 25.086L188.171 39.0486L174.293 25.1917L174.293 25.1915L174.24 25.1389C170.408 21.3124 170.432 15.0848 174.293 11.2291C178.155 7.37345 184.392 7.34977 188.224 11.1762ZM188.214 15.5718H177.925V25.2146C177.925 25.8664 178.446 26.3949 179.09 26.3949H179.733C179.733 28.2397 181.082 29.7353 182.746 29.7353C184.41 29.7353 185.76 28.2397 185.76 26.3949H191.063C191.063 28.2397 192.413 29.7353 194.077 29.7353C195.741 29.7353 197.09 28.2397 197.09 26.3949H198.898C198.898 20.4175 194.115 15.5718 188.214 15.5718ZM196.956 23.4404C196.956 20.6157 194.696 18.3258 191.907 18.3258V23.4404H196.956ZM182.78 28.9485C183.745 28.9485 184.527 28.1558 184.527 27.178C184.527 26.2002 183.745 25.4076 182.78 25.4076C181.814 25.4076 181.032 26.2002 181.032 27.178C181.032 28.1558 181.814 28.9485 182.78 28.9485ZM195.791 27.178C195.791 28.1558 195.009 28.9485 194.043 28.9485C193.078 28.9485 192.296 28.1558 192.296 27.178C192.296 26.2002 193.078 25.4076 194.043 25.4076C195.009 25.4076 195.791 26.2002 195.791 27.178ZM182.197 18.7193H179.09V22.6536H182.197V18.7193ZM186.469 18.7193H183.362V22.6536H186.469V18.7193ZM190.742 18.7193H187.635V22.6536H190.742V18.7193Z" fill="#58595A"/>
<line y1="0.5" x2="375" y2="0.5" stroke="#C4C4C4"/>
</svg>
