<svg width="375" height="55" viewBox="0 0 375 55" fill="none" xmlns="http://www.w3.org/2000/svg">
<rect y="1" width="375" height="54" fill="white"/>
<path fill-rule="evenodd" clip-rule="evenodd" d="M49.0824 9.42463C49.8642 8.63896 51.1359 8.63896 51.9177 9.42463L62.9904 20.5517C62.994 20.5553 62.9915 20.5614 62.9864 20.5614V20.5614C62.9833 20.5614 62.9808 20.5639 62.9808 20.567V32C62.9808 33.1046 62.0854 34 60.9808 34H55.7365C54.6319 34 53.7365 33.1046 53.7365 32V27.1472C53.7365 26.0427 52.841 25.1472 51.7365 25.1472H49.2636C48.159 25.1472 47.2636 26.0427 47.2636 27.1472V32C47.2636 33.1046 46.3682 34 45.2636 34H40.0379C38.9333 34 38.0379 33.1046 38.0379 32V20.5725C38.0379 20.5663 38.0329 20.5614 38.0267 20.5614V20.5614C38.0169 20.5614 38.0119 20.5494 38.0189 20.5424L49.0824 9.42463Z" fill="#979797"/>
<path fill-rule="evenodd" clip-rule="evenodd" d="M322.819 12.4979C323.974 10.5007 326.857 10.5007 328.012 12.4979L338.424 30.4972C339.58 32.4972 338.137 34.9993 335.827 34.9993H315.004C312.694 34.9993 311.251 32.4972 312.408 30.4972L322.819 12.4979ZM328.315 29.5256C328.315 31.124 327.017 32.4197 325.415 32.4197C323.814 32.4197 322.516 31.124 322.516 29.5256C322.516 27.9272 323.814 26.6314 325.415 26.6314C327.017 26.6314 328.315 27.9272 328.315 29.5256ZM327.704 17.7993H323.29L324.328 25.6321H326.795L327.704 17.7993Z" fill="#979797"/>
<path d="M37.0924 40.01H38.1124V43.01H41.7624V40.01H42.7824V47H41.7624V43.87H38.1124V47H37.0924V40.01ZM46.6146 47.15C46.0746 47.15 45.5979 47.05 45.1846 46.85C44.7779 46.6433 44.4579 46.35 44.2246 45.97C43.9979 45.5833 43.8846 45.13 43.8846 44.61C43.8846 44.0967 43.9979 43.6467 44.2246 43.26C44.4512 42.8733 44.7712 42.5767 45.1846 42.37C45.5979 42.1567 46.0746 42.05 46.6146 42.05C47.1546 42.05 47.6312 42.1567 48.0446 42.37C48.4579 42.5767 48.7779 42.8733 49.0046 43.26C49.2379 43.6467 49.3546 44.0967 49.3546 44.61C49.3546 45.13 49.2379 45.5833 49.0046 45.97C48.7779 46.35 48.4579 46.6433 48.0446 46.85C47.6312 47.05 47.1546 47.15 46.6146 47.15ZM46.6146 46.35C47.1346 46.35 47.5479 46.19 47.8546 45.87C48.1612 45.55 48.3146 45.13 48.3146 44.61C48.3146 44.07 48.1612 43.6433 47.8546 43.33C47.5479 43.0167 47.1346 42.86 46.6146 42.86C46.0946 42.86 45.6812 43.0167 45.3746 43.33C45.0679 43.6433 44.9146 44.07 44.9146 44.61C44.9146 45.13 45.0679 45.55 45.3746 45.87C45.6812 46.19 46.0946 46.35 46.6146 46.35ZM50.4518 42.2H51.4118V42.89C51.6384 42.61 51.8951 42.4 52.1818 42.26C52.4684 42.12 52.7651 42.05 53.0718 42.05C53.4584 42.05 53.7651 42.1167 53.9918 42.25C54.2184 42.3767 54.3851 42.5733 54.4918 42.84C54.7051 42.58 54.9651 42.3833 55.2718 42.25C55.5851 42.1167 55.8984 42.05 56.2118 42.05C56.7984 42.05 57.2218 42.2 57.4818 42.5C57.7418 42.7933 57.8718 43.23 57.8718 43.81V47H56.8918V43.94C56.8918 43.5467 56.8184 43.27 56.6718 43.11C56.5251 42.9433 56.2751 42.86 55.9218 42.86C55.4151 42.86 55.0018 43.08 54.6818 43.52C54.6951 43.62 54.7018 43.7833 54.7018 44.01V47H53.7218V43.94C53.7218 43.5467 53.6551 43.27 53.5218 43.11C53.3884 42.9433 53.1484 42.86 52.8018 42.86C52.2951 42.86 51.8418 43.1467 51.4418 43.72V47H50.4518V42.2ZM61.7636 47.15C60.877 47.15 60.1803 46.93 59.6736 46.49C59.1736 46.0433 58.9236 45.4167 58.9236 44.61C58.9236 43.8233 59.147 43.2 59.5936 42.74C60.047 42.28 60.6903 42.05 61.5236 42.05C62.077 42.05 62.547 42.1567 62.9336 42.37C63.3203 42.5767 63.6103 42.8667 63.8036 43.24C64.0036 43.6067 64.1036 44.0267 64.1036 44.5V45H59.8836C59.917 45.4533 60.107 45.7933 60.4536 46.02C60.807 46.24 61.2836 46.35 61.8836 46.35C62.1903 46.35 62.5003 46.3233 62.8136 46.27C63.127 46.21 63.4036 46.1333 63.6436 46.04V46.85C63.4303 46.9367 63.147 47.0067 62.7936 47.06C62.447 47.12 62.1036 47.15 61.7636 47.15ZM63.1536 44.29C63.1403 43.8367 62.9903 43.4867 62.7036 43.24C62.4236 42.9867 62.0236 42.86 61.5036 42.86C60.997 42.86 60.6036 42.99 60.3236 43.25C60.0436 43.51 59.897 43.8567 59.8836 44.29H63.1536Z" fill="#979797"/>
<path d="M159.636 49.15C159.236 49.15 158.839 49.1133 158.446 49.04C158.059 48.9733 157.743 48.88 157.496 48.76V47.84C158.136 48.14 158.826 48.29 159.566 48.29C160.606 48.29 161.126 47.94 161.126 47.24C161.126 47 161.069 46.8067 160.956 46.66C160.843 46.5133 160.679 46.3867 160.466 46.28C160.253 46.1667 159.906 46.0133 159.426 45.82C158.766 45.5533 158.289 45.26 157.996 44.94C157.703 44.62 157.556 44.2167 157.556 43.73C157.556 43.3633 157.656 43.04 157.856 42.76C158.056 42.4733 158.336 42.2533 158.696 42.1C159.056 41.94 159.469 41.86 159.936 41.86C160.316 41.86 160.659 41.89 160.966 41.95C161.273 42.01 161.573 42.1067 161.866 42.24V43.12C161.286 42.86 160.699 42.73 160.106 42.73C159.626 42.73 159.259 42.8167 159.006 42.99C158.753 43.1633 158.626 43.41 158.626 43.73C158.626 43.95 158.679 44.1367 158.786 44.29C158.899 44.4367 159.063 44.57 159.276 44.69C159.496 44.8033 159.819 44.9467 160.246 45.12C160.719 45.3133 161.093 45.4967 161.366 45.67C161.639 45.8433 161.846 46.0567 161.986 46.31C162.133 46.5567 162.206 46.8667 162.206 47.24C162.206 47.8467 161.989 48.3167 161.556 48.65C161.123 48.9833 160.483 49.15 159.636 49.15ZM164.875 49.15C164.295 49.15 163.828 49.0033 163.475 48.71C163.128 48.41 162.955 48.0067 162.955 47.5C162.955 46.9667 163.122 46.5567 163.455 46.27C163.795 45.9767 164.275 45.83 164.895 45.83C165.555 45.83 166.115 45.9633 166.575 46.23V45.98C166.575 45.6 166.458 45.32 166.225 45.14C165.998 44.9533 165.638 44.86 165.145 44.86C164.852 44.86 164.565 44.89 164.285 44.95C164.012 45.0033 163.765 45.08 163.545 45.18V44.36C163.745 44.2667 164.005 44.1933 164.325 44.14C164.645 44.08 164.955 44.05 165.255 44.05C166.048 44.05 166.635 44.2267 167.015 44.58C167.402 44.9267 167.595 45.41 167.595 46.03V49H166.645V48.46C166.438 48.6867 166.192 48.86 165.905 48.98C165.625 49.0933 165.282 49.15 164.875 49.15ZM165.125 48.38C165.445 48.38 165.735 48.3167 165.995 48.19C166.255 48.0633 166.448 47.8867 166.575 47.66V47.01C166.142 46.73 165.658 46.59 165.125 46.59C164.738 46.59 164.448 46.6667 164.255 46.82C164.068 46.9667 163.975 47.1933 163.975 47.5C163.975 48.0867 164.358 48.38 165.125 48.38ZM168.199 44.2H169.269L170.679 47.65L172.089 44.2H173.159L171.119 49H170.239L168.199 44.2ZM176.498 49.15C175.611 49.15 174.915 48.93 174.408 48.49C173.908 48.0433 173.658 47.4167 173.658 46.61C173.658 45.8233 173.881 45.2 174.328 44.74C174.781 44.28 175.425 44.05 176.258 44.05C176.811 44.05 177.281 44.1567 177.668 44.37C178.055 44.5767 178.345 44.8667 178.538 45.24C178.738 45.6067 178.838 46.0267 178.838 46.5V47H174.618C174.651 47.4533 174.841 47.7933 175.188 48.02C175.541 48.24 176.018 48.35 176.618 48.35C176.925 48.35 177.235 48.3233 177.548 48.27C177.861 48.21 178.138 48.1333 178.378 48.04V48.85C178.165 48.9367 177.881 49.0067 177.528 49.06C177.181 49.12 176.838 49.15 176.498 49.15ZM177.888 46.29C177.875 45.8367 177.725 45.4867 177.438 45.24C177.158 44.9867 176.758 44.86 176.238 44.86C175.731 44.86 175.338 44.99 175.058 45.25C174.778 45.51 174.631 45.8567 174.618 46.29H177.888ZM182.262 49.15C181.782 49.15 181.349 49.0467 180.962 48.84C180.582 48.6267 180.282 48.33 180.062 47.95C179.849 47.5633 179.742 47.1167 179.742 46.61C179.742 46.11 179.849 45.6667 180.062 45.28C180.282 44.8933 180.582 44.5933 180.962 44.38C181.349 44.16 181.782 44.05 182.262 44.05C183.129 44.05 183.785 44.3133 184.232 44.84V41.61H185.242V49H184.262V48.3C183.995 48.5933 183.702 48.81 183.382 48.95C183.069 49.0833 182.695 49.15 182.262 49.15ZM182.492 48.35C182.905 48.35 183.265 48.2433 183.572 48.03C183.885 47.81 184.105 47.5167 184.232 47.15V46.07C184.119 45.7033 183.902 45.41 183.582 45.19C183.269 44.97 182.905 44.86 182.492 44.86C182.165 44.86 181.869 44.9333 181.602 45.08C181.342 45.2267 181.135 45.4333 180.982 45.7C180.835 45.9667 180.762 46.27 180.762 46.61C180.762 46.95 180.835 47.2533 180.982 47.52C181.135 47.7867 181.342 47.9933 181.602 48.14C181.869 48.28 182.165 48.35 182.492 48.35ZM190.245 42.01H193.455C194.075 42.01 194.555 42.17 194.895 42.49C195.235 42.81 195.405 43.2767 195.405 43.89C195.405 44.2367 195.321 44.5433 195.155 44.81C194.995 45.07 194.781 45.2633 194.515 45.39C195.261 45.61 195.635 46.1533 195.635 47.02C195.635 47.4267 195.545 47.78 195.365 48.08C195.191 48.3733 194.951 48.6 194.645 48.76C194.338 48.92 193.998 49 193.625 49H190.245V42.01ZM193.325 45.01C193.651 45.01 193.908 44.92 194.095 44.74C194.281 44.56 194.375 44.2933 194.375 43.94C194.375 43.5333 194.281 43.25 194.095 43.09C193.915 42.9233 193.635 42.84 193.255 42.84H191.265V45.01H193.325ZM193.395 48.17C193.788 48.17 194.088 48.0833 194.295 47.91C194.501 47.7367 194.605 47.44 194.605 47.02C194.605 46.6 194.495 46.3 194.275 46.12C194.061 45.94 193.738 45.85 193.305 45.85H191.265V48.17H193.395ZM198.649 49.15C198.002 49.15 197.512 48.9767 197.179 48.63C196.852 48.2833 196.689 47.82 196.689 47.24V44.2H197.699V47.2C197.699 47.9667 198.082 48.35 198.849 48.35C199.522 48.35 200.049 48.0467 200.429 47.44V44.2H201.439V49H200.459V48.32C200.232 48.6067 199.962 48.8167 199.649 48.95C199.342 49.0833 199.009 49.15 198.649 49.15ZM204.505 49.15C204.172 49.15 203.818 49.1067 203.445 49.02C203.072 48.94 202.778 48.83 202.565 48.69V47.83C202.825 47.9833 203.125 48.11 203.465 48.21C203.805 48.3033 204.135 48.35 204.455 48.35C204.815 48.35 205.078 48.3067 205.245 48.22C205.412 48.1333 205.495 47.9933 205.495 47.8C205.495 47.6533 205.455 47.5367 205.375 47.45C205.302 47.3567 205.172 47.2733 204.985 47.2C204.805 47.1267 204.532 47.04 204.165 46.94C203.772 46.8267 203.458 46.7133 203.225 46.6C202.998 46.48 202.825 46.33 202.705 46.15C202.592 45.97 202.535 45.7367 202.535 45.45C202.535 44.99 202.715 44.6433 203.075 44.41C203.442 44.17 203.932 44.05 204.545 44.05C204.865 44.05 205.178 44.08 205.485 44.14C205.792 44.2 206.038 44.2833 206.225 44.39V45.23C206.032 45.1167 205.792 45.0267 205.505 44.96C205.225 44.8933 204.938 44.86 204.645 44.86C204.292 44.86 204.022 44.9033 203.835 44.99C203.648 45.0767 203.555 45.23 203.555 45.45C203.555 45.59 203.595 45.7033 203.675 45.79C203.755 45.8767 203.882 45.9533 204.055 46.02C204.235 46.08 204.518 46.16 204.905 46.26C205.512 46.4267 205.932 46.6233 206.165 46.85C206.405 47.0767 206.525 47.39 206.525 47.79C206.525 48.2033 206.355 48.5333 206.015 48.78C205.675 49.0267 205.172 49.15 204.505 49.15ZM210.268 49.15C209.381 49.15 208.684 48.93 208.178 48.49C207.678 48.0433 207.428 47.4167 207.428 46.61C207.428 45.8233 207.651 45.2 208.098 44.74C208.551 44.28 209.194 44.05 210.028 44.05C210.581 44.05 211.051 44.1567 211.438 44.37C211.824 44.5767 212.114 44.8667 212.308 45.24C212.508 45.6067 212.608 46.0267 212.608 46.5V47H208.388C208.421 47.4533 208.611 47.7933 208.958 48.02C209.311 48.24 209.788 48.35 210.388 48.35C210.694 48.35 211.004 48.3233 211.318 48.27C211.631 48.21 211.908 48.1333 212.148 48.04V48.85C211.934 48.9367 211.651 49.0067 211.298 49.06C210.951 49.12 210.608 49.15 210.268 49.15ZM211.658 46.29C211.644 45.8367 211.494 45.4867 211.208 45.24C210.928 44.9867 210.528 44.86 210.008 44.86C209.501 44.86 209.108 44.99 208.828 45.25C208.548 45.51 208.401 45.8567 208.388 46.29H211.658ZM215.482 49.15C215.148 49.15 214.795 49.1067 214.422 49.02C214.048 48.94 213.755 48.83 213.542 48.69V47.83C213.802 47.9833 214.102 48.11 214.442 48.21C214.782 48.3033 215.112 48.35 215.432 48.35C215.792 48.35 216.055 48.3067 216.222 48.22C216.388 48.1333 216.472 47.9933 216.472 47.8C216.472 47.6533 216.432 47.5367 216.352 47.45C216.278 47.3567 216.148 47.2733 215.962 47.2C215.782 47.1267 215.508 47.04 215.142 46.94C214.748 46.8267 214.435 46.7133 214.202 46.6C213.975 46.48 213.802 46.33 213.682 46.15C213.568 45.97 213.512 45.7367 213.512 45.45C213.512 44.99 213.692 44.6433 214.052 44.41C214.418 44.17 214.908 44.05 215.522 44.05C215.842 44.05 216.155 44.08 216.462 44.14C216.768 44.2 217.015 44.2833 217.202 44.39V45.23C217.008 45.1167 216.768 45.0267 216.482 44.96C216.202 44.8933 215.915 44.86 215.622 44.86C215.268 44.86 214.998 44.9033 214.812 44.99C214.625 45.0767 214.532 45.23 214.532 45.45C214.532 45.59 214.572 45.7033 214.652 45.79C214.732 45.8767 214.858 45.9533 215.032 46.02C215.212 46.08 215.495 46.16 215.882 46.26C216.488 46.4267 216.908 46.6233 217.142 46.85C217.382 47.0767 217.502 47.39 217.502 47.79C217.502 48.2033 217.332 48.5333 216.992 48.78C216.652 49.0267 216.148 49.15 215.482 49.15Z" fill="#979797"/>
<path d="M315.594 41.01H316.574L319.364 48H318.324L317.624 46.26H314.534L313.854 48H312.804L315.594 41.01ZM317.344 45.41L316.084 42.14L314.824 45.41H317.344ZM320.465 40.61H321.475V48H320.465V40.61ZM325.42 48.15C324.533 48.15 323.837 47.93 323.33 47.49C322.83 47.0433 322.58 46.4167 322.58 45.61C322.58 44.8233 322.803 44.2 323.25 43.74C323.703 43.28 324.347 43.05 325.18 43.05C325.733 43.05 326.203 43.1567 326.59 43.37C326.977 43.5767 327.267 43.8667 327.46 44.24C327.66 44.6067 327.76 45.0267 327.76 45.5V46H323.54C323.573 46.4533 323.763 46.7933 324.11 47.02C324.463 47.24 324.94 47.35 325.54 47.35C325.847 47.35 326.157 47.3233 326.47 47.27C326.783 47.21 327.06 47.1333 327.3 47.04V47.85C327.087 47.9367 326.803 48.0067 326.45 48.06C326.103 48.12 325.76 48.15 325.42 48.15ZM326.81 45.29C326.797 44.8367 326.647 44.4867 326.36 44.24C326.08 43.9867 325.68 43.86 325.16 43.86C324.653 43.86 324.26 43.99 323.98 44.25C323.7 44.51 323.553 44.8567 323.54 45.29H326.81ZM328.864 43.2H329.844V44.06C330.044 43.7667 330.324 43.55 330.684 43.41C331.051 43.27 331.474 43.2 331.954 43.2V43.99C331.441 43.99 331.001 44.0733 330.634 44.24C330.267 44.4067 330.014 44.67 329.874 45.03V48H328.864V43.2ZM334.708 48.15C334.221 48.15 333.845 48.01 333.578 47.73C333.318 47.45 333.188 47.0533 333.188 46.54V43.98H332.458V43.2H333.188V41.76H334.208V43.2H335.388V43.98H334.208V46.47C334.208 46.79 334.268 47.0167 334.388 47.15C334.515 47.2833 334.741 47.35 335.068 47.35C335.261 47.35 335.455 47.3067 335.648 47.22V48.02C335.395 48.1067 335.081 48.15 334.708 48.15ZM338.173 48.15C337.84 48.15 337.486 48.1067 337.113 48.02C336.74 47.94 336.446 47.83 336.233 47.69V46.83C336.493 46.9833 336.793 47.11 337.133 47.21C337.473 47.3033 337.803 47.35 338.123 47.35C338.483 47.35 338.746 47.3067 338.913 47.22C339.08 47.1333 339.163 46.9933 339.163 46.8C339.163 46.6533 339.123 46.5367 339.043 46.45C338.97 46.3567 338.84 46.2733 338.653 46.2C338.473 46.1267 338.2 46.04 337.833 45.94C337.44 45.8267 337.126 45.7133 336.893 45.6C336.666 45.48 336.493 45.33 336.373 45.15C336.26 44.97 336.203 44.7367 336.203 44.45C336.203 43.99 336.383 43.6433 336.743 43.41C337.11 43.17 337.6 43.05 338.213 43.05C338.533 43.05 338.846 43.08 339.153 43.14C339.46 43.2 339.706 43.2833 339.893 43.39V44.23C339.7 44.1167 339.46 44.0267 339.173 43.96C338.893 43.8933 338.606 43.86 338.313 43.86C337.96 43.86 337.69 43.9033 337.503 43.99C337.316 44.0767 337.223 44.23 337.223 44.45C337.223 44.59 337.263 44.7033 337.343 44.79C337.423 44.8767 337.55 44.9533 337.723 45.02C337.903 45.08 338.186 45.16 338.573 45.26C339.18 45.4267 339.6 45.6233 339.833 45.85C340.073 46.0767 340.193 46.39 340.193 46.79C340.193 47.2033 340.023 47.5333 339.683 47.78C339.343 48.0267 338.84 48.15 338.173 48.15Z" fill="#979797"/>
<path fill-rule="evenodd" clip-rule="evenodd" d="M187.103 13.6559L187.147 13.7004L187.148 13.7002L187.154 13.7061C187.238 13.6141 187.325 13.5236 187.414 13.4345C190.647 10.2059 195.87 10.186 199.079 13.3902C202.288 16.5944 202.268 21.8092 199.035 25.0378C198.945 25.1269 198.855 25.2135 198.763 25.2977L198.768 25.3036L187.059 36.9955L175.438 25.3922L175.438 25.392L175.394 25.3479C172.185 22.1437 172.205 16.9289 175.438 13.7002C178.672 10.4716 183.894 10.4518 187.103 13.6559ZM187.095 17.3367H178.479V25.4113C178.479 25.9571 178.916 26.3996 179.455 26.3996H179.993C179.993 27.9445 181.123 29.1968 182.516 29.1968C183.91 29.1968 185.04 27.9445 185.04 26.3996H189.481C189.481 27.9445 190.611 29.1968 192.004 29.1968C193.398 29.1968 194.528 27.9445 194.528 26.3996H196.042C196.042 21.3943 192.036 17.3367 187.095 17.3367ZM194.416 23.9257C194.416 21.5603 192.523 19.6428 190.188 19.6428V23.9257H194.416ZM182.544 28.5379C183.353 28.5379 184.008 27.8742 184.008 27.0554C184.008 26.2366 183.353 25.5729 182.544 25.5729C181.736 25.5729 181.081 26.2366 181.081 27.0554C181.081 27.8742 181.736 28.5379 182.544 28.5379ZM193.44 27.0554C193.44 27.8742 192.785 28.5379 191.976 28.5379C191.168 28.5379 190.513 27.8742 190.513 27.0554C190.513 26.2366 191.168 25.5729 191.976 25.5729C192.785 25.5729 193.44 26.2366 193.44 27.0554ZM182.057 19.9723H179.455V23.2668H182.057V19.9723ZM185.634 19.9723H183.032V23.2668H185.634V19.9723ZM189.212 19.9723H186.61V23.2668H189.212V19.9723Z" fill="#979797"/>
<line y1="0.5" x2="375" y2="0.5" stroke="#C4C4C4"/>
</svg>
