<svg width="25" height="26" viewBox="0 0 25 26" fill="none" xmlns="http://www.w3.org/2000/svg">
<path fill-rule="evenodd" clip-rule="evenodd" d="M11.0824 1.42463C11.8642 0.638959 13.1359 0.63896 13.9177 1.42463L24.9904 12.5517C24.994 12.5553 24.9915 12.5614 24.9864 12.5614V12.5614C24.9833 12.5614 24.9808 12.5639 24.9808 12.567V24C24.9808 25.1046 24.0854 26 22.9808 26H17.7365C16.6319 26 15.7365 25.1046 15.7365 24V19.1472C15.7365 18.0427 14.841 17.1472 13.7365 17.1472H11.2636C10.159 17.1472 9.26359 18.0427 9.26359 19.1472V24C9.26359 25.1046 8.36816 26 7.26359 26H2.03786C0.933294 26 0.0378646 25.1046 0.0378646 24V12.5725C0.0378646 12.5663 0.0328872 12.5614 0.0267472 12.5614V12.5614C0.0168558 12.5614 0.0118896 12.5494 0.0188668 12.5424L11.0824 1.42463Z" fill="#979797"/>
</svg>
