<svg width="14" height="21" viewBox="0 0 14 21" fill="none" xmlns="http://www.w3.org/2000/svg">
<mask id="mask0" mask-type="alpha" maskUnits="userSpaceOnUse" x="0" y="0" width="14" height="21">
<path fill-rule="evenodd" clip-rule="evenodd" d="M10.4906 0.412269L0.425293 9.40223C-0.141764 9.90796 -0.141764 10.7522 0.425293 11.26L10.4906 20.2479C11.1078 20.7993 12.0823 20.7993 12.6996 20.2479C13.3526 19.6643 13.3526 18.6923 12.6996 18.1077L4.26967 10.5788C4.11674 10.4428 4.11674 10.2174 4.26967 10.0814L12.6996 2.55254C13.3526 1.96892 13.3526 0.996923 12.6996 0.412269C12.3904 0.138115 11.993 0 11.5956 0C11.1971 0 10.7998 0.138115 10.4906 0.412269Z" fill="white"/>
</mask>
<g mask="url(#mask0)">
<path fill-rule="evenodd" clip-rule="evenodd" d="M10.4906 0.412269L0.425293 9.40223C-0.141764 9.90796 -0.141764 10.7522 0.425293 11.26L10.4906 20.2479C11.1078 20.7993 12.0823 20.7993 12.6996 20.2479C13.3526 19.6643 13.3526 18.6923 12.6996 18.1077L4.26967 10.5788C4.11674 10.4428 4.11674 10.2174 4.26967 10.0814L12.6996 2.55254C13.3526 1.96892 13.3526 0.996923 12.6996 0.412269C12.3904 0.138115 11.993 0 11.5956 0C11.1971 0 10.7998 0.138115 10.4906 0.412269Z" fill="#09162A"/>
</g>
</svg>
