<svg width="29" height="26" viewBox="0 0 29 26" fill="none" xmlns="http://www.w3.org/2000/svg">
<path fill-rule="evenodd" clip-rule="evenodd" d="M14.1033 2.65594L14.1475 2.70039L14.1476 2.70022L14.1535 2.70612C14.2378 2.61413 14.3246 2.52356 14.4138 2.4345C17.6473 -0.794126 22.8699 -0.813954 26.0789 2.39022C29.2879 5.59439 29.268 10.8092 26.0346 14.0378C25.9454 14.1269 25.8547 14.2135 25.7625 14.2977L25.7684 14.3036L14.0589 25.9955L2.43815 14.3922L2.43832 14.392L2.39381 14.3479C-0.815178 11.1437 -0.79532 5.92887 2.43816 2.70022C5.67165 -0.528416 10.8943 -0.548245 14.1033 2.65594ZM14.0947 6.33669H5.47893V14.4113C5.47893 14.9571 5.91577 15.3996 6.45464 15.3996H6.99297C6.99297 16.9445 8.12274 18.1968 9.51638 18.1968C10.91 18.1968 12.0398 16.9445 12.0398 15.3996H16.481C16.481 16.9445 17.6107 18.1968 19.0044 18.1968C20.398 18.1968 21.5278 16.9445 21.5278 15.3996H23.0419C23.0419 10.3943 19.0361 6.33669 14.0947 6.33669ZM21.4157 12.9257C21.4157 10.5603 19.5227 8.64283 17.1876 8.64283V12.9257H21.4157ZM9.54441 17.5379C10.3527 17.5379 11.008 16.8742 11.008 16.0554C11.008 15.2366 10.3527 14.5729 9.54441 14.5729C8.7361 14.5729 8.08084 15.2366 8.08084 16.0554C8.08084 16.8742 8.7361 17.5379 9.54441 17.5379ZM20.4399 16.0554C20.4399 16.8742 19.7847 17.5379 18.9764 17.5379C18.1681 17.5379 17.5128 16.8742 17.5128 16.0554C17.5128 15.2366 18.1681 14.5729 18.9764 14.5729C19.7847 14.5729 20.4399 15.2366 20.4399 16.0554ZM9.05656 8.97228H6.45464V12.2668H9.05656V8.97228ZM12.6342 8.97228H10.0323V12.2668H12.6342V8.97228ZM16.2118 8.97228H13.6099V12.2668H16.2118V8.97228Z" fill="#979797"/>
</svg>
